<svg viewBox="0 0 148 148" fill="none" xmlns="http://www.w3.org/2000/svg">
<path d="M74.1933 0.447266L75.6851 0.290006L72.7016 0.290006L74.1933 0.447266ZM68.0028 59.1691L67.0592 60.3351L69.2052 62.0717L69.4946 59.3263L68.0028 59.1691ZM80.3746 59.0814L78.8828 59.2387L79.1723 61.984L81.3182 60.2474L80.3746 59.0814ZM126.023 22.14L127.189 23.0836L125.079 20.974L126.023 22.14ZM89.1325 67.7247L87.9665 66.7811L86.2299 68.927L88.9752 69.2164L89.1325 67.7247ZM147.337 73.8606L147.494 75.3523V72.3689L147.337 73.8606ZM88.8161 80.0299L88.6588 78.5382L85.9135 78.8276L87.6501 80.9735L88.8161 80.0299ZM125.834 125.772L124.89 126.938L127 124.828L125.834 125.772ZM80.3412 88.9566L81.2848 87.7905L79.1389 86.0539L78.8495 88.7993L80.3412 88.9566ZM74.1933 147.274L72.7016 147.432H75.6851L74.1933 147.274ZM68.0362 88.8689L69.5279 88.7116L69.2385 85.9663L67.0926 87.7029L68.0362 88.8689ZM22.2003 125.962L21.0342 125.019L23.1439 127.128L22.2003 125.962ZM59.345 80.0631L60.511 81.0067L62.2476 78.8607L59.5023 78.5713L59.345 80.0631ZM0.509766 73.8606L0.352506 72.3689L0.352506 75.3523L0.509766 73.8606ZM59.0286 67.6915L59.1859 69.1833L61.9313 68.8938L60.1946 66.7479L59.0286 67.6915ZM22.0113 21.9496L22.9549 20.7836L20.8453 22.8933L22.0113 21.9496ZM72.7016 0.290006L66.5111 59.0118L69.4946 59.3263L75.6851 0.604525L72.7016 0.290006ZM81.8663 58.9241L75.6851 0.290006L72.7016 0.604525L78.8828 59.2387L81.8663 58.9241ZM125.079 20.974L79.431 57.9154L81.3182 60.2474L126.966 23.306L125.079 20.974ZM90.2985 68.6683L127.189 23.0836L124.857 21.1964L87.9665 66.7811L90.2985 68.6683ZM147.494 72.3689L89.2897 66.2329L88.9752 69.2164L147.18 75.3523L147.494 72.3689ZM88.9734 81.5216L147.494 75.3523L147.18 72.3689L88.6588 78.5382L88.9734 81.5216ZM127 124.828L89.9821 79.0863L87.6501 80.9735L124.668 126.716L127 124.828ZM79.3976 90.1226L124.89 126.938L126.777 124.606L81.2848 87.7905L79.3976 90.1226ZM75.6851 147.432L81.833 89.1138L78.8495 88.7993L72.7016 147.117L75.6851 147.432ZM66.5445 89.0262L72.7016 147.432L75.6851 147.117L69.5279 88.7116L66.5445 89.0262ZM23.1439 127.128L68.9798 90.0349L67.0926 87.7029L21.2566 124.796L23.1439 127.128ZM58.179 79.1194L21.0342 125.019L23.3663 126.906L60.511 81.0067L58.179 79.1194ZM0.352506 75.3523L59.1877 81.5548L59.5023 78.5713L0.667025 72.3689L0.352506 75.3523ZM58.8714 66.1998L0.352506 72.3689L0.667025 75.3523L59.1859 69.1833L58.8714 66.1998ZM20.8453 22.8933L57.8626 68.6351L60.1946 66.7479L23.1773 21.006L20.8453 22.8933ZM68.9465 58.003L22.9549 20.7836L21.0677 23.1157L67.0592 60.3351L68.9465 58.003Z" fill="currentColor"/>
</svg>
